<svg width="137" height="15" viewBox="0 0 137 15" fill="none" xmlns="http://www.w3.org/2000/svg">
<path d="M0.500244 14.8144H3.54204V9.38212H11.2503V6.67669H3.54204V3.46313H12.6102V0.607422H0.500244V14.8144Z" fill="white"/>
<path d="M27.2752 2.42539C26.6025 1.7884 25.7794 1.28739 24.8418 0.943846C23.9042 0.593145 22.8521 0.421387 21.7284 0.421387C20.6047 0.421387 19.5455 0.600302 18.6079 0.943846C17.6703 1.29455 16.8544 1.7884 16.1745 2.42539C15.5017 3.06237 14.9721 3.83536 14.5999 4.72285C14.2277 5.61034 14.0416 6.59802 14.0416 7.66444C14.0416 8.73086 14.2277 9.73287 14.5999 10.6275C14.9721 11.5222 15.5017 12.3095 16.1745 12.9536C16.8472 13.5977 17.6631 14.1059 18.6079 14.4638C19.5455 14.8216 20.5976 15.0005 21.7356 15.0005C22.8736 15.0005 23.9185 14.8216 24.8561 14.4638C25.7937 14.1059 26.6168 13.5977 27.2895 12.9536C27.9623 12.3095 28.4919 11.5222 28.8641 10.6275C29.2363 9.73287 29.4224 8.73802 29.4224 7.66444C29.4224 6.59086 29.2363 5.61034 28.8641 4.72285C28.4919 3.83536 27.9623 3.06237 27.2895 2.42539H27.2824H27.2752ZM21.7213 12.1162C21.0485 12.1162 20.4258 12.0089 19.8604 11.8013C19.295 11.5937 18.8011 11.2931 18.386 10.9067C17.9781 10.5202 17.6488 10.0549 17.4198 9.511C17.1908 8.96706 17.0691 8.35153 17.0691 7.66444C17.0691 6.97735 17.1836 6.36899 17.4198 5.82504C17.6488 5.28825 17.9781 4.83021 18.386 4.45804C18.8011 4.08587 19.295 3.79242 19.8604 3.59917C20.4258 3.39877 21.0556 3.29858 21.7284 3.29858C22.4012 3.29858 23.0239 3.39877 23.5964 3.59917C24.1619 3.79242 24.6557 4.08587 25.0637 4.45804C25.4716 4.83021 25.7937 5.28825 26.0299 5.82504C26.2661 6.36183 26.3806 6.97735 26.3806 7.66444C26.3806 8.35153 26.2661 8.96706 26.0299 9.511C25.7937 10.0549 25.4716 10.5273 25.0565 10.9067C24.6486 11.2931 24.1547 11.5937 23.5893 11.8013C23.0239 12.0089 22.394 12.1162 21.7284 12.1162H21.7213Z" fill="white"/>
<path d="M43.2357 9.59683C43.6222 9.28191 43.9443 8.91688 44.1948 8.50892C44.4524 8.10812 44.6385 7.65723 44.7602 7.1777C44.8819 6.69817 44.9391 6.19002 44.9391 5.66755C44.9391 4.88742 44.8175 4.17168 44.567 3.54901C44.3165 2.91918 43.9371 2.38239 43.429 1.93865C42.928 1.50206 42.2838 1.17282 41.5252 0.943788C40.7737 0.721916 39.879 0.607422 38.8555 0.607422H31.9918V14.8144H35.0336V10.8851H38.8484L41.3176 14.8144H45.0322L42.1121 10.2911C42.5343 10.0978 42.9137 9.86881 43.2429 9.60399L43.2357 9.59683ZM41.7614 5.66038C41.7614 6.0254 41.7041 6.3618 41.5896 6.65524C41.4751 6.94868 41.3033 7.19201 41.0743 7.39241C40.8381 7.59996 40.5446 7.75745 40.1939 7.87197C39.8361 7.98648 39.4066 8.0509 38.9271 8.0509H35.0336V3.43451H38.9271C39.8933 3.43451 40.6162 3.63492 41.0814 4.02141C41.5395 4.40789 41.7614 4.9375 41.7614 5.65322V5.66038Z" fill="white"/>
<path d="M64.2778 0.600304L60.642 9.68992L60.1767 11.2717L59.5684 9.70425L58.2658 6.46203L60.7064 0.59314H57.5501L56.7771 2.90494L55.9469 0.59314H52.7906L55.2312 6.46203L53.9429 9.65414L53.4562 11.2788L52.8263 9.63981L49.2191 0.600304H45.8982L51.8601 14.8073H54.7373L55.9755 11.9444L56.7485 9.78297L57.5214 11.9516L58.7382 14.8073H61.6225L67.5773 0.600304H64.2563H64.2778Z" fill="white"/>
<path d="M96.0698 9.59683C96.4563 9.28191 96.7784 8.91688 97.0289 8.50892C97.2866 8.10812 97.4727 7.65723 97.5943 7.1777C97.716 6.69817 97.7733 6.19002 97.7733 5.66755C97.7733 4.88742 97.6516 4.17168 97.4011 3.54901C97.1506 2.91918 96.7712 2.38239 96.2631 1.93865C95.7621 1.50206 95.1179 1.17282 94.3593 0.943788C93.6078 0.721916 92.7131 0.607422 91.6897 0.607422H84.8259V14.8144H87.8677V10.8851H91.6825L94.1517 14.8144H97.8663L94.9462 10.2911C95.3684 10.0978 95.7478 9.86881 96.077 9.60399L96.0698 9.59683ZM94.5955 5.66038C94.5955 6.0254 94.5382 6.3618 94.4237 6.65524C94.3092 6.94868 94.1374 7.19201 93.9084 7.39241C93.6722 7.59996 93.3788 7.75745 93.0281 7.87197C92.6702 7.98648 92.2408 8.0509 91.7612 8.0509H87.8677V3.43451H91.7612C92.7274 3.43451 93.4503 3.63492 93.9155 4.02141C94.3736 4.40789 94.5955 4.9375 94.5955 5.65322V5.66038Z" fill="white"/>
<path d="M111.902 2.48985C111.207 1.88149 110.32 1.4091 109.261 1.08702C108.216 0.764951 106.963 0.600342 105.546 0.600342H100.55V14.8074H105.568C106.985 14.8145 108.237 14.6355 109.282 14.2777C110.334 13.9198 111.222 13.4188 111.916 12.7819C112.61 12.1449 113.14 11.3719 113.476 10.4987C113.813 9.62555 113.984 8.66649 113.984 7.64302C113.984 6.56944 113.813 5.58173 113.469 4.71571C113.126 3.84254 112.596 3.09104 111.895 2.48268L111.902 2.48985ZM106.205 11.9874H103.592V3.44176H106.205C106.978 3.44176 107.657 3.54195 108.237 3.74235C108.803 3.93559 109.289 4.22187 109.669 4.57973C110.041 4.93759 110.334 5.38134 110.52 5.8895C110.714 6.40482 110.807 7.00604 110.807 7.65018C110.807 8.29433 110.706 8.91697 110.52 9.45376C110.334 9.98339 110.041 10.4415 109.669 10.8136C109.289 11.1858 108.81 11.4792 108.237 11.6868C107.657 11.8944 106.978 11.9945 106.212 11.9945L106.205 11.9874Z" fill="white"/>
<path d="M119.667 0.421387H116.611V14.6284H119.667V0.421387Z" fill="white"/>
<path d="M133.495 0.421387V4.80157L125.557 0.421387H122.659V14.6284H125.693V3.9427L133.488 8.21556V14.6284H136.529V0.421387H133.488H133.495Z" fill="white"/>
<path d="M73.6894 0.600342L67.3553 14.8074H70.5761L75.2497 4.17893L80.0665 14.8074H83.2801L76.7527 0.600342H73.6894Z" fill="white"/>
</svg>
