<svg width="19" height="19" viewBox="0 0 19 19" fill="none" xmlns="http://www.w3.org/2000/svg">
<mask id="mask0_217_154" style="mask-type:alpha" maskUnits="userSpaceOnUse" x="0" y="0" width="19" height="19">
<rect x="0.883362" y="0.600403" width="17.7276" height="17.7276" fill="#D9D9D9"/>
</mask>
<g mask="url(#mask0_217_154)">
<path d="M9.74714 10.2025C10.3627 10.2025 10.8859 9.9871 11.3168 9.55622C11.7476 9.12534 11.9631 8.60213 11.9631 7.98659C11.9631 7.37105 11.7476 6.84784 11.3168 6.41697C10.8859 5.98609 10.3627 5.77065 9.74714 5.77065C9.1316 5.77065 8.60839 5.98609 8.17751 6.41697C7.74663 6.84784 7.53119 7.37105 7.53119 7.98659C7.53119 8.60213 7.74663 9.12534 8.17751 9.55622C8.60839 9.9871 9.1316 10.2025 9.74714 10.2025ZM3.83795 15.3731C3.4317 15.3731 3.08392 15.2284 2.79461 14.9391C2.50531 14.6498 2.36066 14.302 2.36066 13.8958V5.032C2.36066 4.62574 2.50531 4.27796 2.79461 3.98866C3.08392 3.69936 3.4317 3.5547 3.83795 3.5547H15.6563C16.0626 3.5547 16.4104 3.69936 16.6997 3.98866C16.989 4.27796 17.1336 4.62574 17.1336 5.032V13.8958C17.1336 14.302 16.989 14.6498 16.6997 14.9391C16.4104 15.2284 16.0626 15.3731 15.6563 15.3731H3.83795ZM5.13059 13.8958H14.3637C13.8097 13.2064 13.1388 12.6647 12.3509 12.2708C11.563 11.8768 10.6951 11.6798 9.74714 11.6798C8.79921 11.6798 7.93129 11.8768 7.1434 12.2708C6.35551 12.6647 5.68457 13.2064 5.13059 13.8958ZM4.5766 17.589C4.36732 17.589 4.19189 17.5182 4.05031 17.3767C3.90874 17.2351 3.83795 17.0597 3.83795 16.8504C3.83795 16.6411 3.90874 16.4657 4.05031 16.3241C4.19189 16.1825 4.36732 16.1117 4.5766 16.1117H14.9177C15.127 16.1117 15.3024 16.1825 15.444 16.3241C15.5855 16.4657 15.6563 16.6411 15.6563 16.8504C15.6563 17.0597 15.5855 17.2351 15.444 17.3767C15.3024 17.5182 15.127 17.589 14.9177 17.589H4.5766ZM4.5766 2.81606C4.36732 2.81606 4.19189 2.74527 4.05031 2.6037C3.90874 2.46212 3.83795 2.28669 3.83795 2.07741C3.83795 1.86812 3.90874 1.6927 4.05031 1.55112C4.19189 1.40955 4.36732 1.33876 4.5766 1.33876H14.9177C15.127 1.33876 15.3024 1.40955 15.444 1.55112C15.5855 1.6927 15.6563 1.86812 15.6563 2.07741C15.6563 2.28669 15.5855 2.46212 15.444 2.6037C15.3024 2.74527 15.127 2.81606 14.9177 2.81606H4.5766Z" fill="#3366FF"/>
</g>
</svg>
