<svg width="19" height="19" viewBox="0 0 19 19" fill="none" xmlns="http://www.w3.org/2000/svg">
<mask id="mask0_217_159" style="mask-type:alpha" maskUnits="userSpaceOnUse" x="0" y="0" width="19" height="19">
<rect x="0.883362" y="0.458328" width="17.7276" height="17.7276" fill="#D9D9D9"/>
</mask>
<g mask="url(#mask0_217_159)">
<path d="M7.53119 7.10566C7.32191 7.10566 7.14648 7.03487 7.00491 6.8933C6.86333 6.75172 6.79254 6.57629 6.79254 6.36701C6.79254 6.15773 6.86333 5.9823 7.00491 5.84072C7.14648 5.69915 7.32191 5.62836 7.53119 5.62836H11.9631C12.1724 5.62836 12.3478 5.69915 12.4894 5.84072C12.6309 5.9823 12.7017 6.15773 12.7017 6.36701C12.7017 6.57629 12.6309 6.75172 12.4894 6.8933C12.3478 7.03487 12.1724 7.10566 11.9631 7.10566H7.53119ZM6.0539 17.4467C5.64764 17.4467 5.29986 17.3021 5.01055 17.0128C4.72125 16.7235 4.5766 16.3757 4.5766 15.9694V2.67377C4.5766 2.26751 4.72125 1.91973 5.01055 1.63043C5.29986 1.34112 5.64764 1.19647 6.0539 1.19647H13.4404C13.8466 1.19647 14.1944 1.34112 14.4837 1.63043C14.773 1.91973 14.9177 2.26751 14.9177 2.67377V15.9694C14.9177 16.3757 14.773 16.7235 14.4837 17.0128C14.1944 17.3021 13.8466 17.4467 13.4404 17.4467H6.0539ZM6.0539 13.7535H13.4404V4.88971H6.0539V13.7535Z" fill="#3366FF"/>
</g>
</svg>
