<svg width="19" height="19" viewBox="0 0 19 19" fill="none" xmlns="http://www.w3.org/2000/svg">
<mask id="mask0_217_164" style="mask-type:alpha" maskUnits="userSpaceOnUse" x="0" y="0" width="19" height="19">
<rect x="0.883362" y="0.315796" width="17.7276" height="17.7276" fill="#D9D9D9"/>
</mask>
<g mask="url(#mask0_217_164)">
<path d="M6.79255 12.8728H10.4858C10.6951 12.8728 10.8705 12.8021 11.0121 12.6605C11.1536 12.5189 11.2244 12.3435 11.2244 12.1342C11.2244 11.9249 11.1536 11.7495 11.0121 11.6079C10.8705 11.4663 10.6951 11.3955 10.4858 11.3955H6.79255C6.58326 11.3955 6.40783 11.4663 6.26626 11.6079C6.12468 11.7495 6.0539 11.9249 6.0539 12.1342C6.0539 12.3435 6.12468 12.5189 6.26626 12.6605C6.40783 12.8021 6.58326 12.8728 6.79255 12.8728ZM6.79255 9.91825H12.7017C12.911 9.91825 13.0864 9.84746 13.228 9.70589C13.3696 9.56432 13.4404 9.38889 13.4404 9.1796C13.4404 8.97032 13.3696 8.79489 13.228 8.65332C13.0864 8.51174 12.911 8.44095 12.7017 8.44095H6.79255C6.58326 8.44095 6.40783 8.51174 6.26626 8.65332C6.12468 8.79489 6.0539 8.97032 6.0539 9.1796C6.0539 9.38889 6.12468 9.56432 6.26626 9.70589C6.40783 9.84746 6.58326 9.91825 6.79255 9.91825ZM6.79255 6.96366H12.7017C12.911 6.96366 13.0864 6.89287 13.228 6.7513C13.3696 6.60972 13.4404 6.43429 13.4404 6.22501C13.4404 6.01573 13.3696 5.8403 13.228 5.69872C13.0864 5.55715 12.911 5.48636 12.7017 5.48636H6.79255C6.58326 5.48636 6.40783 5.55715 6.26626 5.69872C6.12468 5.8403 6.0539 6.01573 6.0539 6.22501C6.0539 6.43429 6.12468 6.60972 6.26626 6.7513C6.40783 6.89287 6.58326 6.96366 6.79255 6.96366ZM4.5766 15.8274C4.17034 15.8274 3.82256 15.6828 3.53326 15.3935C3.24396 15.1042 3.0993 14.7564 3.0993 14.3501V4.00907C3.0993 3.60281 3.24396 3.25503 3.53326 2.96572C3.82256 2.67642 4.17034 2.53177 4.5766 2.53177H14.9177C15.3239 2.53177 15.6717 2.67642 15.961 2.96572C16.2503 3.25503 16.395 3.60281 16.395 4.00907V14.3501C16.395 14.7564 16.2503 15.1042 15.961 15.3935C15.6717 15.6828 15.3239 15.8274 14.9177 15.8274H4.5766Z" fill="#3366FF"/>
</g>
</svg>
